<svg id="Layer_1" data-name="Layer 1" xmlns="http://www.w3.org/2000/svg" viewBox="0 0 100.01 100.01"><title>Artboard 5</title><path d="M53.55,46.49a3.55,3.55,0,1,1-7.1,0V27.7c0-2,1.59-3.17,3.55-3.17s3.55,1.2,3.55,3.17ZM78.4,47a3.55,3.55,0,0,1-3.55,3.56H71.3V71.91a3.55,3.55,0,0,1-3.55,3.56H32.26a3.56,3.56,0,0,1-3.55-3.56V50.55H25.16a3.56,3.56,0,0,1,0-7.12H44.68V47a5.32,5.32,0,1,0,10.65,0V43.42H74.85A3.55,3.55,0,0,1,78.4,47M41.13,57.55a1.77,1.77,0,1,0-3.55,0V68.23a1.77,1.77,0,1,0,3.55,0Zm7.1,0a1.77,1.77,0,1,0-3.55,0V68.23a1.77,1.77,0,1,0,3.55,0Zm7.1,0a1.77,1.77,0,1,0-3.55,0V68.23a1.77,1.77,0,1,0,3.55,0Zm7.1,0a1.78,1.78,0,1,0-3.55,0V68.23a1.78,1.78,0,1,0,3.55,0Z" fill="#ccd631"/></svg>